<mxfile host="app.diagrams.net" modified="2024-03-07T03:06:01.632Z" agent="Mozilla/5.0 (Macintosh; Intel Mac OS X 10_15_7) AppleWebKit/605.1.15 (KHTML, like Gecko) Version/16.5 Safari/605.1.15" etag="TT-YwCIdG7mBEVY7MdLQ" version="24.0.0" type="github">
  <diagram name="Page-1" id="Xy4lt4DB5cCuHjgBxs2x">
    <mxGraphModel dx="954" dy="552" grid="1" gridSize="10" guides="1" tooltips="1" connect="1" arrows="1" fold="1" page="1" pageScale="1" pageWidth="827" pageHeight="1169" math="0" shadow="0">
      <root>
        <mxCell id="0" />
        <mxCell id="1" parent="0" />
        <mxCell id="EOjThl3WFCyrKo_wU2wN-18" style="edgeStyle=orthogonalEdgeStyle;rounded=0;orthogonalLoop=1;jettySize=auto;html=1;" edge="1" parent="1" source="EOjThl3WFCyrKo_wU2wN-1">
          <mxGeometry relative="1" as="geometry">
            <mxPoint x="100" y="230" as="targetPoint" />
          </mxGeometry>
        </mxCell>
        <mxCell id="EOjThl3WFCyrKo_wU2wN-19" style="edgeStyle=orthogonalEdgeStyle;rounded=0;orthogonalLoop=1;jettySize=auto;html=1;" edge="1" parent="1" source="EOjThl3WFCyrKo_wU2wN-1">
          <mxGeometry relative="1" as="geometry">
            <mxPoint x="250" y="230" as="targetPoint" />
            <Array as="points">
              <mxPoint x="100" y="180" />
              <mxPoint x="250" y="180" />
            </Array>
          </mxGeometry>
        </mxCell>
        <mxCell id="EOjThl3WFCyrKo_wU2wN-21" style="edgeStyle=orthogonalEdgeStyle;rounded=0;orthogonalLoop=1;jettySize=auto;html=1;" edge="1" parent="1" source="EOjThl3WFCyrKo_wU2wN-1">
          <mxGeometry relative="1" as="geometry">
            <mxPoint x="400" y="230" as="targetPoint" />
            <Array as="points">
              <mxPoint x="100" y="180" />
              <mxPoint x="400" y="180" />
            </Array>
          </mxGeometry>
        </mxCell>
        <mxCell id="EOjThl3WFCyrKo_wU2wN-23" style="edgeStyle=orthogonalEdgeStyle;rounded=0;orthogonalLoop=1;jettySize=auto;html=1;entryX=0.5;entryY=0;entryDx=0;entryDy=0;" edge="1" parent="1" source="EOjThl3WFCyrKo_wU2wN-1">
          <mxGeometry relative="1" as="geometry">
            <mxPoint x="550" y="230" as="targetPoint" />
            <Array as="points">
              <mxPoint x="100" y="180" />
              <mxPoint x="550" y="180" />
            </Array>
          </mxGeometry>
        </mxCell>
        <mxCell id="EOjThl3WFCyrKo_wU2wN-24" style="edgeStyle=orthogonalEdgeStyle;rounded=0;orthogonalLoop=1;jettySize=auto;html=1;" edge="1" parent="1" source="EOjThl3WFCyrKo_wU2wN-1">
          <mxGeometry relative="1" as="geometry">
            <mxPoint x="700" y="230" as="targetPoint" />
            <Array as="points">
              <mxPoint x="100" y="180" />
              <mxPoint x="700" y="180" />
            </Array>
          </mxGeometry>
        </mxCell>
        <mxCell id="EOjThl3WFCyrKo_wU2wN-1" value="&lt;div&gt;&lt;span style=&quot;white-space: pre;&quot;&gt;&#x9;&lt;/span&gt;User model&lt;/div&gt;&lt;ul&gt;&lt;li&gt;userId&lt;br&gt;&lt;/li&gt;&lt;li&gt;userName&lt;br&gt;&lt;/li&gt;&lt;li&gt;firstName&lt;br&gt;&lt;/li&gt;&lt;li&gt;lastName&lt;br&gt;&lt;/li&gt;&lt;li&gt;email&lt;br&gt;&lt;/li&gt;&lt;/ul&gt;" style="whiteSpace=wrap;html=1;aspect=fixed;align=left;" vertex="1" parent="1">
          <mxGeometry x="30" y="10" width="140" height="140" as="geometry" />
        </mxCell>
        <mxCell id="EOjThl3WFCyrKo_wU2wN-46" value="&lt;div&gt;&lt;br&gt;&lt;/div&gt;&lt;div&gt;&lt;div style=&quot;text-align: left;&quot;&gt;&lt;span style=&quot;white-space: pre;&quot;&gt;&#x9;TaskToDo&lt;/span&gt;&lt;/div&gt;&lt;ul style=&quot;text-align: left;&quot;&gt;&lt;li&gt;taskTitle&lt;/li&gt;&lt;li&gt;taskDescription&lt;/li&gt;&lt;li&gt;taskStatus&lt;/li&gt;&lt;li&gt;teamRef&lt;br&gt;&lt;/li&gt;&lt;li&gt;organisationRef&lt;/li&gt;&lt;li&gt;taskCreatedBy&lt;/li&gt;&lt;li&gt;taskCreatedAt&lt;/li&gt;&lt;/ul&gt;&lt;/div&gt;" style="rounded=0;whiteSpace=wrap;html=1;spacingLeft=-27;" vertex="1" parent="1">
          <mxGeometry x="30" y="230" width="140" height="210" as="geometry" />
        </mxCell>
        <mxCell id="EOjThl3WFCyrKo_wU2wN-28" value="" style="group" vertex="1" connectable="0" parent="1">
          <mxGeometry x="20" y="850" width="180" height="200" as="geometry" />
        </mxCell>
        <mxCell id="EOjThl3WFCyrKo_wU2wN-26" value="" style="swimlane;startSize=0;" vertex="1" parent="EOjThl3WFCyrKo_wU2wN-28">
          <mxGeometry width="180" height="200" as="geometry" />
        </mxCell>
        <mxCell id="EOjThl3WFCyrKo_wU2wN-27" value="&lt;br&gt;&lt;div&gt;&lt;div style=&quot;text-align: left; white-space: normal;&quot;&gt;&lt;span style=&quot;white-space: pre;&quot;&gt;&#x9;TaskToDo&lt;/span&gt;&lt;/div&gt;&lt;ul style=&quot;text-align: left; white-space: normal;&quot;&gt;&lt;li&gt;taskTitle&lt;/li&gt;&lt;li&gt;taskDescription&lt;/li&gt;&lt;li&gt;taskStatus&lt;/li&gt;&lt;li&gt;teamRef&lt;br&gt;&lt;/li&gt;&lt;li&gt;organisationRef&lt;/li&gt;&lt;li&gt;taskCreatedBy&lt;/li&gt;&lt;li&gt;taskCreatedAt&lt;/li&gt;&lt;/ul&gt;&lt;/div&gt;" style="text;html=1;align=center;verticalAlign=middle;resizable=0;points=[];autosize=1;strokeColor=none;fillColor=none;" vertex="1" parent="EOjThl3WFCyrKo_wU2wN-28">
          <mxGeometry y="25" width="150" height="160" as="geometry" />
        </mxCell>
        <mxCell id="EOjThl3WFCyrKo_wU2wN-31" value="" style="swimlane;startSize=0;" vertex="1" parent="1">
          <mxGeometry x="220" y="850" width="180" height="200" as="geometry" />
        </mxCell>
        <mxCell id="EOjThl3WFCyrKo_wU2wN-33" value="" style="group" vertex="1" connectable="0" parent="1">
          <mxGeometry x="420" y="850" width="180" height="200" as="geometry" />
        </mxCell>
        <mxCell id="EOjThl3WFCyrKo_wU2wN-34" value="" style="swimlane;startSize=0;" vertex="1" parent="EOjThl3WFCyrKo_wU2wN-33">
          <mxGeometry width="180" height="200" as="geometry" />
        </mxCell>
        <mxCell id="EOjThl3WFCyrKo_wU2wN-35" value="&lt;br&gt;&lt;div&gt;&lt;div style=&quot;text-align: left; white-space: normal;&quot;&gt;&lt;span style=&quot;white-space: pre;&quot;&gt;&#x9;Request&lt;/span&gt;&lt;/div&gt;&lt;ul style=&quot;text-align: left; white-space: normal;&quot;&gt;&lt;li&gt;requestCode&lt;br&gt;&lt;/li&gt;&lt;li&gt;requestTitle&lt;br&gt;&lt;/li&gt;&lt;li&gt;requestDescription&lt;/li&gt;&lt;li&gt;requestType&lt;/li&gt;&lt;li&gt;requestStatus&lt;/li&gt;&lt;li&gt;requestCreatedBy&lt;/li&gt;&lt;li&gt;requestCreatedAt&lt;/li&gt;&lt;/ul&gt;&lt;/div&gt;" style="text;html=1;align=center;verticalAlign=middle;resizable=0;points=[];autosize=1;strokeColor=none;fillColor=none;" vertex="1" parent="EOjThl3WFCyrKo_wU2wN-33">
          <mxGeometry x="-5" y="25" width="160" height="160" as="geometry" />
        </mxCell>
        <mxCell id="EOjThl3WFCyrKo_wU2wN-36" value="" style="group" vertex="1" connectable="0" parent="1">
          <mxGeometry x="630" y="850" width="180" height="200" as="geometry" />
        </mxCell>
        <mxCell id="EOjThl3WFCyrKo_wU2wN-37" value="" style="swimlane;startSize=0;" vertex="1" parent="EOjThl3WFCyrKo_wU2wN-36">
          <mxGeometry width="180" height="200" as="geometry" />
        </mxCell>
        <mxCell id="EOjThl3WFCyrKo_wU2wN-38" value="&lt;br&gt;&lt;div&gt;&lt;div style=&quot;text-align: left; white-space: normal;&quot;&gt;&lt;span style=&quot;white-space: pre;&quot;&gt;&#x9;ToDo&lt;/span&gt;&lt;/div&gt;&lt;ul style=&quot;text-align: left; white-space: normal;&quot;&gt;&lt;li&gt;todoCode&lt;br&gt;&lt;/li&gt;&lt;li&gt;todoData&lt;/li&gt;&lt;li&gt;todoTeamRef&lt;/li&gt;&lt;li&gt;todoOrganisationRef&lt;/li&gt;&lt;li&gt;todoCreatedBy&lt;/li&gt;&lt;li&gt;todoCreatedAt&lt;/li&gt;&lt;/ul&gt;&lt;/div&gt;" style="text;html=1;align=center;verticalAlign=middle;resizable=0;points=[];autosize=1;strokeColor=none;fillColor=none;" vertex="1" parent="EOjThl3WFCyrKo_wU2wN-36">
          <mxGeometry x="-10" y="30" width="170" height="150" as="geometry" />
        </mxCell>
        <mxCell id="EOjThl3WFCyrKo_wU2wN-39" value="" style="group" vertex="1" connectable="0" parent="1">
          <mxGeometry x="840" y="850" width="180" height="200" as="geometry" />
        </mxCell>
        <mxCell id="EOjThl3WFCyrKo_wU2wN-40" value="" style="swimlane;startSize=0;" vertex="1" parent="EOjThl3WFCyrKo_wU2wN-39">
          <mxGeometry width="180" height="200" as="geometry" />
        </mxCell>
        <mxCell id="EOjThl3WFCyrKo_wU2wN-41" value="&lt;div style=&quot;text-align: left; white-space: normal;&quot;&gt;&lt;span style=&quot;white-space: pre;&quot;&gt;&#x9;User Management&lt;/span&gt;&lt;br&gt;&lt;/div&gt;&lt;ul style=&quot;text-align: left; white-space: normal;&quot;&gt;&lt;li&gt;userId&lt;br&gt;&lt;/li&gt;&lt;li&gt;userName&lt;br&gt;&lt;/li&gt;&lt;li&gt;firstName&lt;br&gt;&lt;/li&gt;&lt;li&gt;lastName&lt;br&gt;&lt;/li&gt;&lt;li&gt;email&lt;/li&gt;&lt;/ul&gt;" style="text;html=1;align=center;verticalAlign=middle;resizable=0;points=[];autosize=1;strokeColor=none;fillColor=none;" vertex="1" parent="EOjThl3WFCyrKo_wU2wN-39">
          <mxGeometry y="45" width="150" height="120" as="geometry" />
        </mxCell>
        <mxCell id="EOjThl3WFCyrKo_wU2wN-32" value="&lt;br&gt;&lt;div&gt;&lt;div style=&quot;text-align: left; white-space: normal;&quot;&gt;&lt;span style=&quot;white-space: pre;&quot;&gt;&#x9;Query&lt;/span&gt;&lt;/div&gt;&lt;ul style=&quot;text-align: left; white-space: normal;&quot;&gt;&lt;li&gt;queryCode&lt;/li&gt;&lt;li&gt;queryTitle&lt;/li&gt;&lt;li&gt;queryDescription&lt;/li&gt;&lt;li&gt;queryStatus&lt;/li&gt;&lt;li&gt;queryType&lt;/li&gt;&lt;li&gt;queryCreatedBy&lt;/li&gt;&lt;li&gt;queryCreatedAt&lt;/li&gt;&lt;/ul&gt;&lt;/div&gt;" style="text;html=1;align=center;verticalAlign=middle;resizable=0;points=[];autosize=1;strokeColor=none;fillColor=none;" vertex="1" parent="1">
          <mxGeometry x="220" y="875" width="150" height="160" as="geometry" />
        </mxCell>
        <mxCell id="EOjThl3WFCyrKo_wU2wN-47" value="&lt;br&gt;&lt;div&gt;&lt;div style=&quot;text-align: left;&quot;&gt;&lt;span style=&quot;white-space: pre;&quot;&gt;&#x9;Query&lt;/span&gt;&lt;/div&gt;&lt;ul style=&quot;text-align: left;&quot;&gt;&lt;li&gt;queryCode&lt;/li&gt;&lt;li&gt;queryTitle&lt;/li&gt;&lt;li&gt;queryDescription&lt;/li&gt;&lt;li&gt;queryStatus&lt;/li&gt;&lt;li&gt;queryType&lt;/li&gt;&lt;li&gt;queryCreatedBy&lt;/li&gt;&lt;li&gt;queryCreatedAt&lt;/li&gt;&lt;/ul&gt;&lt;/div&gt;" style="rounded=0;whiteSpace=wrap;html=1;spacingLeft=-27;" vertex="1" parent="1">
          <mxGeometry x="180" y="230" width="140" height="210" as="geometry" />
        </mxCell>
        <mxCell id="EOjThl3WFCyrKo_wU2wN-48" value="&lt;br&gt;&lt;div&gt;&lt;div style=&quot;text-align: left;&quot;&gt;&lt;span style=&quot;white-space: pre;&quot;&gt;&#x9;Request&lt;/span&gt;&lt;/div&gt;&lt;ul style=&quot;text-align: left;&quot;&gt;&lt;li&gt;requestCode&lt;br&gt;&lt;/li&gt;&lt;li&gt;requestTitle&lt;br&gt;&lt;/li&gt;&lt;li&gt;requestDescription&lt;/li&gt;&lt;li&gt;requestType&lt;/li&gt;&lt;li&gt;requestStatus&lt;/li&gt;&lt;li&gt;requestCreatedBy&lt;/li&gt;&lt;li&gt;requestCreatedAt&lt;/li&gt;&lt;/ul&gt;&lt;/div&gt;" style="rounded=0;whiteSpace=wrap;html=1;spacingLeft=-27;" vertex="1" parent="1">
          <mxGeometry x="330" y="230" width="140" height="210" as="geometry" />
        </mxCell>
        <mxCell id="EOjThl3WFCyrKo_wU2wN-49" value="&lt;br&gt;&lt;div&gt;&lt;div style=&quot;text-align: left;&quot;&gt;&lt;span style=&quot;white-space: pre;&quot;&gt;&#x9;ToDo&lt;/span&gt;&lt;/div&gt;&lt;ul style=&quot;text-align: left;&quot;&gt;&lt;li&gt;todoCode&lt;br&gt;&lt;/li&gt;&lt;li&gt;todoData&lt;/li&gt;&lt;li&gt;todoTeamRef&lt;/li&gt;&lt;li&gt;todoOrganisationRef&lt;/li&gt;&lt;li&gt;todoCreatedBy&lt;/li&gt;&lt;li&gt;todoCreatedAt&lt;/li&gt;&lt;/ul&gt;&lt;/div&gt;" style="rounded=0;whiteSpace=wrap;html=1;spacingLeft=-20;" vertex="1" parent="1">
          <mxGeometry x="480" y="230" width="140" height="210" as="geometry" />
        </mxCell>
        <mxCell id="EOjThl3WFCyrKo_wU2wN-50" value="&lt;div style=&quot;text-align: left;&quot;&gt;&lt;span style=&quot;white-space: pre;&quot;&gt;&#x9;User Management&lt;/span&gt;&lt;br&gt;&lt;/div&gt;&lt;ul style=&quot;text-align: left;&quot;&gt;&lt;li&gt;userId&lt;br&gt;&lt;/li&gt;&lt;li&gt;userName&lt;br&gt;&lt;/li&gt;&lt;li&gt;firstName&lt;br&gt;&lt;/li&gt;&lt;li&gt;lastName&lt;br&gt;&lt;/li&gt;&lt;li&gt;email&lt;/li&gt;&lt;/ul&gt;" style="rounded=0;whiteSpace=wrap;html=1;spacingLeft=-32;" vertex="1" parent="1">
          <mxGeometry x="630" y="230" width="140" height="210" as="geometry" />
        </mxCell>
      </root>
    </mxGraphModel>
  </diagram>
</mxfile>
